<?xml version="1.0" standalone="no"?>
<!DOCTYPE svg PUBLIC "-//W3C//DTD SVG 20010904//EN"
 "http://www.w3.org/TR/2001/REC-SVG-20010904/DTD/svg10.dtd">
<svg version="1.0" xmlns="http://www.w3.org/2000/svg"
 width="756.000000pt" height="262.000000pt" viewBox="0 0 756.000000 262.000000"
 preserveAspectRatio="xMidYMid meet">

<g transform="translate(0.000000,262.000000) scale(0.100000,-0.100000)"
fill="#000000" stroke="none">
<path d="M3676 2489 c-63 -134 -110 -182 -246 -247 l-102 -49 103 -50 c134
-66 175 -107 244 -245 l54 -108 49 102 c68 143 99 175 236 244 l113 58 -107
52 c-130 64 -170 105 -240 243 -27 56 -51 101 -53 101 -2 0 -24 -46 -51 -101z"/>
<path d="M1280 1985 l0 -105 -140 0 -140 0 0 70 0 70 -135 0 -135 0 0 -95 0
-95 -145 0 -145 0 0 95 0 95 -140 0 -140 0 0 -385 0 -385 420 0 420 0 0 55 0
55 140 0 140 0 0 -75 0 -75 135 0 135 0 0 440 0 440 -135 0 -135 0 0 -105z m0
-360 l0 -55 -140 0 -140 0 0 55 0 55 140 0 140 0 0 -55z m-550 -80 l0 -85
-145 0 -145 0 0 85 0 85 145 0 145 0 0 -85z"/>
<path d="M2930 1600 l0 -490 135 0 135 0 0 490 0 490 -135 0 -135 0 0 -490z"/>
<path d="M4535 2050 c-215 -27 -381 -113 -434 -225 -27 -58 -28 -153 -2 -212
76 -165 384 -266 720 -234 287 27 464 120 507 266 52 182 -87 333 -361 390
-93 19 -328 28 -430 15z m334 -211 c124 -20 191 -64 191 -128 0 -29 -45 -77
-88 -94 -110 -44 -363 -48 -511 -7 -98 26 -135 119 -70 174 29 25 101 51 164
59 64 9 253 6 314 -4z"/>
<path d="M1840 1630 l0 -390 425 0 425 0 0 390 0 390 -135 0 -135 0 0 -100 0
-100 -155 0 -155 0 0 100 0 100 -135 0 -135 0 0 -390z m580 -95 l0 -85 -155 0
-155 0 0 85 0 85 155 0 155 0 0 -85z"/>
<path d="M5640 1845 l0 -105 557 0 556 0 -6 -192 c-6 -178 -23 -361 -46 -483
-5 -27 -8 -52 -6 -54 7 -7 255 -24 261 -18 9 9 41 235 53 380 6 70 11 229 11
353 l0 224 -690 0 -690 0 0 -105z"/>
<path d="M5900 1055 l0 -265 -182 0 -183 0 -110 -90 c-60 -49 -113 -90 -117
-90 -5 0 -8 74 -8 165 l0 165 -85 0 -85 0 0 70 0 70 180 0 180 0 0 110 0 110
-785 0 -785 0 0 -110 0 -110 180 0 180 0 0 -70 0 -70 -90 0 -90 0 0 -105 0
-105 465 0 465 0 0 -180 0 -180 188 0 187 0 124 100 123 100 767 0 768 0 159
135 c87 75 159 140 159 145 0 11 -137 179 -146 180 -3 0 -70 -54 -147 -120
l-141 -120 -235 0 -236 0 0 265 0 265 -135 0 -135 0 0 -265 0 -265 -80 0 -80
0 0 265 0 265 -135 0 -135 0 0 -265z m-1040 -45 l0 -70 -155 0 -155 0 0 70 0
70 155 0 155 0 0 -70z"/>
<path d="M400 1045 l0 -105 440 0 440 0 0 -35 0 -35 -440 0 -440 0 0 -240 0
-240 869 0 868 0 99 25 c126 31 247 91 318 156 l56 51 56 -51 c99 -91 293
-167 474 -186 l65 -7 38 86 c20 46 40 91 43 99 4 11 -15 17 -88 26 -178 24
-332 91 -407 177 l-35 39 165 6 c90 3 197 7 237 8 l72 1 0 100 0 100 -245 0
-245 0 0 65 0 65 -135 0 -135 0 0 -65 0 -65 -240 0 -240 0 0 -100 0 -100 193
0 c202 0 267 -6 267 -23 0 -17 -96 -104 -139 -126 -22 -12 -74 -32 -117 -46
l-77 -25 -723 0 -724 0 0 35 0 35 440 0 440 0 0 240 0 240 -575 0 -575 0 0
-105z"/>
</g>
</svg>
